<?xml version="1.0" encoding="iso-8859-1"?>
<!-- Generator: Adobe Illustrator 19.0.0, SVG Export Plug-In . SVG Version: 6.00 Build 0)  -->
<svg version="1.1" id="Capa_1" xmlns="http://www.w3.org/2000/svg" xmlns:xlink="http://www.w3.org/1999/xlink" x="0px" y="0px"
	 viewBox="0 0 512 512" style="enable-background:new 0 0 512 512;" xml:space="preserve">
<path style="fill:#F5DA73;" d="M512,256c0,141.385-114.615,256-256,256S0,397.385,0,256S114.615,0,256,0S512,114.615,512,256z"/>
<path style="fill:#FFFAD2;" d="M125.547,476.293C50.389,431.69,0,349.736,0,256c0-19.035,2.095-37.578,6.036-55.429L322,216.563
	L125.547,476.293z"/>
<path style="fill:#415A87;" d="M373.191,180V55c0-13.807,11.193-25,25-25l0,0c13.807,0,25,11.193,25,25v125
	c0,13.807-11.193,25-25,25l0,0C384.384,205,373.191,193.807,373.191,180z"/>
<path style="fill:#414669;" d="M413.191,55c0,8.284-6.716,15-15,15s-15-6.716-15-15s6.716-15,15-15S413.191,46.716,413.191,55z"/>
<path style="fill:#5F82C3;" d="M457.555,132.116l34.202,93.969c3.778,10.38-1.574,21.856-11.953,25.634l-169.145,61.564
	c-10.38,3.778-21.856-1.574-25.634-11.953l-34.202-93.969c-3.778-10.38,1.574-21.856,11.953-25.634l169.145-61.564
	C442.3,116.385,453.777,121.736,457.555,132.116z"/>
<path style="fill:#415A87;" d="M479.803,251.72l-169.145,61.563c-10.38,3.778-21.856-1.574-25.634-11.954l-10.261-28.191
	c3.778,10.38,15.255,15.731,25.634,11.954l75.175-27.361c-1.889-5.19,0.787-10.928,5.977-12.817l65.779-23.941
	c5.19-1.889,10.928,0.787,12.817,5.977l0,0l9.397-3.42c10.38-3.778,15.731-15.254,11.953-25.634l10.261,28.191
	C495.535,236.465,490.183,247.941,479.803,251.72z M361.029,188.532l65.779-23.941c5.19-1.889,7.866-7.627,5.977-12.817l0,0
	c-1.889-5.189-7.627-7.866-12.817-5.977l-65.779,23.941c-5.19,1.889-7.866,7.627-5.977,12.817S355.839,190.421,361.029,188.532z
	 M361.893,220.143c1.889,5.19,7.627,7.866,12.817,5.977l65.779-23.941c5.19-1.889,7.865-7.627,5.977-12.817l0,0
	c-1.889-5.19-7.627-7.866-12.817-5.977l-65.779,23.941C362.679,209.215,360.004,214.953,361.893,220.143z M322.566,264.133
	c4.152-1.511,6.293-6.102,4.781-10.254s-6.102-6.292-10.254-4.781c-4.152,1.511-6.292,6.102-4.781,10.253
	C313.823,263.502,318.414,265.644,322.566,264.133z M345.119,255.924c4.152-1.511,6.293-6.102,4.781-10.254
	s-6.102-6.292-10.254-4.781s-6.292,6.102-4.781,10.253C336.376,255.295,340.967,257.435,345.119,255.924z"/>
<path style="fill:#414669;" d="M262.776,181.726l47.883,131.557l-78.746,66.036c-5.317,4.459-13.449,2.279-15.823-4.242
	l-8.798-24.172L159.41,219.348l-8.798-24.172c-2.374-6.521,2.454-13.418,9.394-13.42L262.776,181.726z"/>
<path style="fill:#415A87;" d="M160.006,181.756l102.77-0.03l37.714,103.619l-78.746,66.036c-5.317,4.459-13.449,2.279-15.823-4.242
	l-8.798-24.171l-37.713-103.62l-8.798-24.172C148.238,188.656,153.066,181.758,160.006,181.756z"/>
<g>
</g>
<g>
</g>
<g>
</g>
<g>
</g>
<g>
</g>
<g>
</g>
<g>
</g>
<g>
</g>
<g>
</g>
<g>
</g>
<g>
</g>
<g>
</g>
<g>
</g>
<g>
</g>
<g>
</g>
</svg>
